<?xml version="1.0" encoding="UTF-8" standalone="no"?>
<svg
   xmlns:dc="http://purl.org/dc/elements/1.1/"
   xmlns:cc="http://creativecommons.org/ns#"
   xmlns:rdf="http://www.w3.org/1999/02/22-rdf-syntax-ns#"
   xmlns:svg="http://www.w3.org/2000/svg"
   xmlns="http://www.w3.org/2000/svg"
   version="1.1"
   id="svg4253"
   viewBox="0 0 539.99998 540.00003"
   height="152.40001mm"
   width="152.39999mm">
  <defs
     id="defs4255" />
  <metadata
     id="metadata4258">
    <rdf:RDF>
      <cc:Work
         rdf:about="">
        <dc:format>image/svg+xml</dc:format>
        <dc:type
           rdf:resource="http://purl.org/dc/dcmitype/StillImage" />
        <dc:title></dc:title>
      </cc:Work>
    </rdf:RDF>
  </metadata>
  <g
     transform="matrix(1.002488,0,0,1.0153473,-133.96091,-183.73631)"
     id="layer1">
    <path
       style="display:inline;fill:#f0eea3"
       d="m 400.88432,621.73522 c -30.13282,-4.39258 -57.18443,-20.54648 -79.15776,-47.26918 -33.6302,-40.89912 -47.28099,-92.8209 -40.8965,-155.55297 5.23665,-51.45374 23.37545,-103.51898 61.26046,-128.92086 22.02542,-14.76803 49.6001,-17.85591 75.95301,-17.85674 27.36536,-6.6e-4 45.7306,5.61552 68.09743,20.82525 30.12171,20.48312 54.54144,57.59852 65.45692,99.48756 4.00663,15.37577 5.06533,24.45668 5.73781,49.21518 1.45369,53.52079 -12.12752,96.41543 -42.04767,132.80258 -30.26169,36.80252 -70.93127,53.60632 -114.4037,47.26918 z"
       id="path4191" />
    <path
       style="display:inline;fill:#bcd53b"
       d="m 383.1296,711.9156 c -41.92072,-5.36957 -74.48157,-15.00317 -106.07096,-31.38263 -26.98136,-13.99014 -47.22232,-29.25688 -69.61968,-52.51061 -36.0159,-37.39299 -58.24291,-79.69996 -69.3026,-131.91078 -5.84409,-27.58893 -5.93133,-72.54132 -0.19228,-99.08004 8.30912,-38.42333 23.18108,-73.17351 43.85819,-102.48012 14.14506,-20.04843 42.67429,-48.78467 62.21323,-62.66463 30.76695,-21.85605 68.71789,-38.21091 107.70535,-46.41534 28.47747,-5.99273 74.32428,-6.01104 102.41751,-0.0409 55.91475,11.88256 101.88902,36.40483 140.46138,74.92086 38.01885,37.96331 61.34236,81.43711 73.32837,136.68012 5.56731,25.6596 5.51748,73.16956 -0.10368,98.82915 -11.71107,53.45902 -33.42433,94.8061 -69.40419,132.16167 -22.39734,23.25373 -42.63831,38.52047 -69.61966,52.51061 -25.30825,13.12261 -51.48218,22.08742 -79.07098,27.08253 -20.38543,3.6909 -54.27378,5.87895 -66.6,4.30009 z m 35.21942,-191.6185 c 30.0812,-5.49437 54.90585,-27.05065 62.92688,-54.64203 4.48776,-15.43736 3.03388,-36.43866 -3.46505,-50.05295 -14.24628,-29.84376 -47.18094,-48.43933 -81.18125,-45.83657 -31.5975,2.41884 -58.96722,22.27979 -69.74812,50.61304 -20.87756,54.86825 30.54828,111.0455 91.46754,99.91851 z"
       id="path4189" />
    <path
       style="display:inline;fill:#b9cb41"
       d="m 383.1296,711.9156 c -41.92072,-5.36957 -74.48157,-15.00317 -106.07096,-31.38263 -26.98136,-13.99014 -47.22232,-29.25688 -69.61968,-52.51061 -36.0159,-37.39299 -58.24291,-79.69996 -69.3026,-131.91078 -5.84409,-27.58893 -5.93133,-72.54132 -0.19228,-99.08004 8.30912,-38.42333 23.18108,-73.17351 43.85819,-102.48012 14.14506,-20.04843 42.67429,-48.78467 62.21323,-62.66463 30.76695,-21.85605 68.71789,-38.21091 107.70535,-46.41534 28.47747,-5.99273 74.32428,-6.01104 102.41751,-0.0409 55.91475,11.88256 101.88902,36.40483 140.46138,74.92086 38.01885,37.96331 61.34236,81.43711 73.32837,136.68012 5.56731,25.6596 5.51748,73.16956 -0.10368,98.82915 -11.71107,53.45902 -33.42433,94.8061 -69.40419,132.16167 -22.39734,23.25373 -42.63831,38.52047 -69.61966,52.51061 -25.30825,13.12261 -51.48218,22.08742 -79.07098,27.08253 -20.38543,3.6909 -54.27378,5.87895 -66.6,4.30009 z m 71.1,-22.01795 c 31.81551,-6.95934 57.48412,-17.65429 84.6,-35.24904 19.84774,-12.87864 49.49158,-40.66595 60.3,-56.52352 2.475,-3.63119 6.64424,-9.43155 9.26498,-12.88967 7.87077,-10.38566 22.59319,-40.65218 28.72024,-59.04346 7.67767,-23.04564 10.58152,-39.73011 11.85126,-68.09279 2.17512,-48.58691 -8.30657,-92.13696 -32.13283,-133.50769 -12.50517,-21.71334 -21.07172,-32.72018 -40.99732,-52.67596 -36.5828,-36.63821 -82.75916,-60.02664 -135.0362,-68.39615 -14.99515,-2.40071 -54.89282,-2.27189 -72.91985,0.23544 -62.97906,8.75958 -129.52996,50.06012 -163.69438,101.58639 -14.00338,21.11968 -17.46201,27.39747 -25.12534,45.6051 -23.01706,54.68724 -26.18775,112.84797 -9.23902,169.47333 5.22511,17.45701 17.63398,45.59044 23.57891,53.4582 2.38126,3.15144 4.32955,6.26458 4.32955,6.91807 0,0.65349 5.68957,8.75793 12.64349,18.0099 12.77212,16.99285 33.96848,38.01148 47.49571,47.09747 4.04844,2.71926 9.49688,6.66 12.10764,8.75722 6.03351,4.84671 33.60731,19.10637 46.55316,24.07475 13.15469,5.04853 42.13323,12.5311 56.1921,14.50939 18.10474,2.54759 62.98529,0.70466 81.5079,-3.34698 z M 399.30988,570.39793 c -3.6071,-5.91606 -4.42158,-11.86775 -3.62623,-26.49777 0.65257,-12.0037 2.87991,-16.61148 7.69885,-15.92705 9.34076,1.32667 14.26554,39.64169 5.88314,45.77105 -4.88498,3.57198 -5.95742,3.21153 -9.95576,-3.34623 z m -30.81374,-3.49141 c -3.46557,-6.3311 -2.62567,-28.69278 1.38618,-36.90594 1.84101,-3.76897 4.68729,-7.09962 6.32508,-7.40148 7.64611,-1.4092 10.84752,33.12866 3.93037,42.40219 -4.79399,6.42714 -8.8069,7.08388 -11.64163,1.90523 z m 55.32147,-0.10854 c -6.24497,-9.74657 -7.11005,-28.2197 -1.93876,-41.4 1.02044,-2.60081 0.1824,-3.1851 -4.80666,-3.35132 -5.16222,-0.17208 -4.73402,-0.45086 2.93913,-1.91408 11.97073,-2.28278 28.75856,-10.4785 38.71828,-18.90205 l 8.1,-6.8507 -5.4,6.56811 c -2.97,3.61244 -7.6275,7.55106 -10.35,8.75243 -2.7225,1.2014 -4.95,2.52645 -4.95,2.94453 0,0.41811 2.05035,2.95235 4.55633,5.63163 6.60947,7.06658 13.6413,22.90437 14.01787,31.57254 0.29486,6.7869 -0.1071,7.54942 -4.23352,8.03077 -8.26308,0.96392 -18.67529,-14.77811 -20.74815,-31.36878 -1.22006,-9.76504 -3.73394,-12.09436 -7.78484,-7.21334 -1.53405,1.84844 -1.28664,4.16806 1.008,9.45 3.89055,8.95558 4.42748,34.76314 0.81392,39.12101 -3.40187,4.10258 -6.8659,3.72949 -9.9416,-1.07075 z m -85.67042,-16.2 c 0.0214,-9.35008 7.13615,-25.30979 14.84478,-33.3 3.1041,-3.2175 4.76159,-5.85 3.68332,-5.85 -1.07829,0 -2.44514,-1.26287 -3.03743,-2.80637 -0.83566,-2.17773 0.53475,-1.90056 6.11786,1.23732 3.95712,2.22403 6.50187,4.49939 5.65499,5.05637 -0.84686,0.55697 -1.99863,5.57904 -2.55947,11.16014 -1.62468,16.16767 -11.84544,32.15254 -20.5584,32.15254 -3.70069,0 -4.16127,-0.84994 -4.14565,-7.65 z m -27.61759,-6.15006 c -4.42761,-4.42761 3.8215,-20.24815 16.50288,-31.65 8.60663,-7.73822 16.49712,-9.15466 16.49712,-2.96141 0,4.80364 -8.04321,20.98956 -13.18465,26.53243 -6.60478,7.12044 -16.67013,11.22421 -19.81535,8.07898 z m 170.23506,-1.77304 c -6.94017,-3.42111 -15.39201,-14.35174 -19.58353,-25.32706 -7.30389,-19.12497 11.74354,-12.30653 26.79847,9.5931 5.50919,8.01392 6.45587,15.94399 2.10278,17.61442 -3.4661,1.33008 -2.34619,1.55608 -9.31772,-1.88046 z M 389.4296,522.24792 c -1.41636,-2.29174 2.75379,-2.29174 6.3,0 2.19507,1.41856 1.96245,1.75003 -1.24376,1.77244 -2.16907,0.0152 -4.44438,-0.78244 -5.05624,-1.77244 z m 11.21575,0.61931 c 1.21865,-0.49306 3.64865,-0.52306 5.4,-0.0668 1.75135,0.45637 0.75425,0.85979 -2.21575,0.89647 -2.97,0.0367 -4.4029,-0.33671 -3.18425,-0.82978 z m -29.10978,-5.17655 c -4.23378,-3.20229 -2.22181,-3.18369 6.19403,0.0572 5.54948,2.13709 5.76391,2.43562 1.8,2.50582 -2.475,0.0437 -6.07231,-1.10956 -7.99403,-2.56306 z m -86.55457,-6.3959 c -2.84349,-8.95905 29.02455,-29.77462 39.45584,-25.77176 4.99203,1.91563 3.19209,6.86618 -5.65724,15.55956 -13.43936,13.20256 -31.15099,18.5541 -33.7986,10.2122 z m 213.95265,0.81237 c -8.192,-2.9032 -24.00405,-18.29174 -24.00405,-23.3611 0,-2.75769 -0.37312,-2.72128 -3.82149,0.37289 -2.74793,2.46569 -2.29255,1.15347 1.62099,-4.67102 12.64025,-18.81231 14.82657,-48.43189 5.08175,-68.8458 -6.54142,-13.70325 -20.28757,-28.45964 -32.43672,-34.82053 -5.40994,-2.83246 -9.27562,-5.57377 -8.5904,-6.09181 0.68523,-0.51803 2.68451,-6.61187 4.44284,-13.54187 4.22235,-16.64126 11.64427,-28.80001 17.58004,-28.80001 4.0568,0 4.4676,0.76962 4.9617,9.29551 0.63097,10.8873 -2.02608,18.05647 -11.06467,29.8545 -3.60265,4.7025 -5.80776,8.55 -4.90025,8.55 0.9075,0 4.001,1.97823 6.87445,4.39609 l 5.22445,4.39608 2.23687,-8.7278 c 2.5055,-9.77593 14.61158,-29.5966 19.13791,-31.33352 10.16836,-3.90196 13.12954,1.98645 7.95454,15.81789 -3.55435,9.49983 -14.32384,21.78211 -22.14635,25.25723 l -4.26348,1.89403 6.95392,7.10294 c 6.32768,6.4633 6.9539,6.7364 6.9539,3.03261 0,-5.11443 16.31517,-21.64943 25.72125,-26.06786 8.64385,-4.06036 12.8318,-3.29117 13.5081,2.481 1.11573,9.52254 -22.0711,28.75131 -34.66951,28.75131 -5.40443,0 -5.46016,0.28944 -1.48976,7.73939 1.68855,3.16834 2.88323,6.57061 2.65482,7.56061 -0.2284,0.99 1.02257,0.0126 2.77992,-2.17289 5.19333,-6.45737 23.06441,-13.61984 34.52377,-13.8366 9.65432,-0.18262 10.09462,0.0108 10.63148,4.66112 0.8417,7.29124 -10.1318,13.89219 -26.51427,15.94925 -6.99478,0.87829 -13.93907,1.12824 -15.43177,0.55542 -2.10442,-0.80753 -2.71403,0.393 -2.71403,5.34489 0,8.06603 1.64166,9.03337 9.65097,5.68686 8.98969,-3.75613 34.11692,-3.66302 37.92046,0.14058 6.29352,6.2935 2.39382,10.72003 -12.12757,13.76592 -9.6522,2.02457 -14.6977,1.50483 -31.22035,-3.21603 -3.47499,-0.99288 -3.85753,-0.43801 -3.69328,5.35697 l 0.18326,6.46457 10.28307,0 c 19.32884,0 40.10051,11.55348 33.99597,18.90902 -4.27804,5.15471 -19.87414,3.45031 -33.52192,-3.66338 -13.21371,-6.88746 -15.91257,-6.97224 -17.30102,-0.54351 -0.49866,2.30883 -1.55346,5.74825 -2.344,7.64314 -0.88607,2.12386 -0.76509,3.0298 0.31542,2.36202 5.93209,-3.66624 33.67598,10.49821 38.62801,19.72129 4.87854,9.08616 -2.6341,11.92214 -17.56497,6.63066 z M 342.14173,499.4432 c -2.13433,-0.85875 -8.58092,-11.39528 -6.97199,-11.39528 0.40293,0 2.89494,2.835 5.53782,6.3 2.64289,3.465 4.56153,6.23605 4.26365,6.15789 -0.29789,-0.0781 -1.57115,-0.55633 -2.82948,-1.06261 z M 273.7796,481.5506 c -1.2375,-0.55146 -2.25,-3.00499 -2.25,-5.45227 0,-6.76501 16.75216,-14.06176 32.4,-14.11249 11.18124,-0.0362 11.7,0.1548 11.7,4.30987 0,6.97817 -14.97149,15.20701 -28.73573,15.79415 -5.97535,0.2549 -11.87677,0.0126 -13.11427,-0.53926 z m 55.3139,-1.64619 c -1.2523,-1.50892 -1.92831,-3.09207 -1.50227,-3.51813 0.42606,-0.42605 1.76336,0.80852 2.97177,2.7435 2.61326,4.1845 1.74173,4.64393 -1.4695,0.77463 z m -5.0339,-8.4465 c -2.49401,-2.49401 -2.83621,-6.80999 -0.53993,-6.80999 1.49139,0 4.25291,7.35701 3.16854,8.44139 -0.27423,0.27424 -1.4571,-0.45989 -2.62861,-1.6314 z m -3.25627,-14.85061 c -0.55732,-1.45235 -0.66595,-3.67985 -0.24138,-4.95 0.42456,-1.27015 1.19865,-0.0819 1.72018,2.64062 1.01834,5.31579 0.1782,6.62767 -1.4788,2.30938 z m -42.17884,-4.4662 c -12.69881,-3.85333 -15.62317,-8.49793 -8.49438,-13.49113 2.84324,-1.99146 8.33653,-2.80206 18.98939,-2.80206 16.65617,0 25.6101,3.13841 25.6101,8.9765 0,6.3284 -23.60062,11.11107 -36.10511,7.31669 z m 41.8975,-10.89319 c -0.0184,-2.475 0.61498,-6.525 1.40761,-9 1.12929,-3.52618 1.4339,-3.72096 1.40762,-0.9 -0.0184,1.98 -0.65189,6.03 -1.40762,9 -1.23424,4.8505 -1.37748,4.94208 -1.40761,0.9 z m -27.5014,-15.05664 c -13.71928,-3.69959 -20.59099,-8.62011 -20.59099,-14.74425 0,-4.79955 0.62063,-5.35084 6.58337,-5.84784 7.79382,-0.6496 23.45027,3.616 31.66663,8.6276 3.99221,2.43506 5.85,4.94453 5.85,7.90209 0,6.89058 -7.93584,8.26191 -23.50901,4.0624 z m 36.07228,-15.99336 c 2.15422,-3.2175 5.23317,-7.98532 6.8421,-10.59518 1.60891,-2.60984 4.3807,-5.65407 6.15949,-6.76496 1.77882,-1.11087 0.29083,1.83446 -3.30663,6.54518 -3.59745,4.71073 -7.37226,10.38746 -8.38845,12.61496 -1.01619,2.2275 -2.60716,4.05 -3.53547,4.05 -0.9283,0 0.0747,-2.6325 2.22896,-5.85 z m -22.95208,-8.76069 c -20.40733,-11.89597 -27.13202,-32.93475 -8.56883,-26.80834 7.15679,2.36196 25.79599,18.53837 27.90969,24.22199 3.59946,9.67873 -5.16371,10.85057 -19.34086,2.58635 z m 18.60176,-19.70133 c -8.10901,-8.9757 -13.51931,-20.23122 -13.57341,-28.23798 -0.0356,-5.27158 0.47944,-5.85 5.20921,-5.85 3.91486,0 6.60731,1.71541 10.59457,6.75 7.71742,9.74459 13.28738,21.18069 13.59203,27.90691 0.22777,5.02873 -0.38453,5.91855 -4.39333,6.38448 -3.5471,0.41227 -6.27284,-1.24607 -11.42907,-6.95341 z m 24.18705,5.77293 c 0,-1.87445 8.93162,-8.12929 10.03403,-7.02688 0.39694,0.39694 -1.69833,2.51091 -4.65617,4.69772 -2.95781,2.18682 -5.37786,3.23494 -5.37786,2.32916 z m 7.2,-10.07084 c -2.475,-1.35617 -7.32159,-7.1426 -10.77019,-12.85871 -5.0987,-8.45118 -6.27575,-12.22295 -6.3,-20.18787 -0.0356,-11.73233 3.69202,-15.83468 9.56173,-10.52266 5.07407,4.59198 12.89768,23.05601 14.11131,33.30328 0.92504,7.81049 1.48344,8.73171 4.87098,8.03603 3.36746,-0.69156 3.28668,-0.45619 -0.67383,1.96326 -5.44937,3.32899 -5.2216,3.32338 -10.8,0.26667 z m 20.16492,-5.87351 c 4.49949,-3.10475 4.62294,-3.50798 1.64342,-5.36873 -1.77183,-1.10652 -5.37853,-6.42068 -8.01492,-11.80925 -8.13999,-16.63755 -5.59116,-38.52961 3.79647,-32.60805 7.8025,4.9217 15.4206,32.37431 11.71107,42.20202 l -1.98525,5.25951 7.49215,-1.14651 c 4.12067,-0.63059 7.65877,-1.26794 7.86242,-1.41633 0.20367,-0.14832 -0.89348,-3.88316 -2.43808,-8.29951 -2.76471,-7.90485 -2.61344,-28.94163 0.2606,-36.24054 2.96385,-7.527 10.67481,-5.57139 13.6566,3.4635 2.45589,7.44139 1.1922,28.7772 -2.06488,34.86311 -1.79241,3.34915 -1.60847,4.38813 1.13162,6.39171 2.87059,2.09904 2.07058,2.39778 -6.5221,2.43546 -9.15559,0.0401 -16.03946,1.14483 -26.89404,4.31587 l -4.5,1.31462 4.86492,-3.35688 z m 50.93508,1.28344 c -2.37373,-1.02003 -2.6803,-1.58067 -0.9,-1.64592 1.485,-0.0544 3.915,0.68623 5.4,1.64592 3.29035,2.12637 0.44837,2.12637 -4.5,0 z m -11.2125,-2.88751 c 0.59812,-0.59812 2.15062,-0.66206 3.45,-0.14202 1.43592,0.5746 1.00941,1.00113 -1.0875,1.08749 -1.89749,0.0781 -2.96062,-0.34726 -2.3625,-0.9454 z m 1.34739,-6.92075 c -4.02874,-10.59638 5.92121,-40.93028 13.79333,-42.05098 9.65556,-1.3746 9.99127,16.99934 0.64873,35.5068 -6.11841,12.12053 -11.41027,14.51844 -14.44206,6.54418 z"
       id="path4187" />
    <path
       style="display:inline;fill:#ad974f"
       d="m 383.1296,711.9156 c -41.92072,-5.36957 -74.48157,-15.00317 -106.07096,-31.38263 -26.98136,-13.99014 -47.22232,-29.25688 -69.61968,-52.51061 -36.0159,-37.39299 -58.24291,-79.69996 -69.3026,-131.91078 -5.84409,-27.58893 -5.93133,-72.54132 -0.19228,-99.08004 8.30912,-38.42333 23.18108,-73.17351 43.85819,-102.48012 14.14506,-20.04843 42.67429,-48.78467 62.21323,-62.66463 30.76695,-21.85605 68.71789,-38.21091 107.70535,-46.41534 28.47747,-5.99273 74.32428,-6.01104 102.41751,-0.0409 55.91475,11.88256 101.88902,36.40483 140.46138,74.92086 38.01885,37.96331 61.34236,81.43711 73.32837,136.68012 5.56731,25.6596 5.51748,73.16956 -0.10368,98.82915 -11.71107,53.45902 -33.42433,94.8061 -69.40419,132.16167 -22.39734,23.25373 -42.63831,38.52047 -69.61966,52.51061 -25.30825,13.12261 -51.48218,22.08742 -79.07098,27.08253 -20.38543,3.6909 -54.27378,5.87895 -66.6,4.30009 z m 66.46695,-17.78748 c 50.27065,-9.74173 93.39442,-32.71234 129.84766,-69.16558 36.29635,-36.29638 58.0529,-76.96634 69.39131,-129.71462 4.54308,-21.13524 4.59369,-71.67428 0.0943,-94.2107 -20.73673,-103.86641 -100.3364,-181.86341 -204.12905,-200.01909 -20.36768,-3.56277 -60.11291,-3.57508 -80.78538,-0.025 -86.91521,14.92585 -159.27687,74.11678 -191.36432,156.5336 -12.11295,31.11219 -15.42147,50.42531 -15.42147,90.02121 0,37.93457 1.54264,48.83089 11.067,78.17125 10.17461,31.34351 26.49254,60.69361 46.66394,83.93172 44.25038,50.97786 97.55753,79.13323 166.36906,87.87158 12.21558,1.55126 53.28312,-0.4907 68.26695,-3.39435 z M 401.50832,570.40426 c -5.57202,-6.71387 -5.8559,-34.39915 -0.4086,-39.84646 5.59993,-5.59992 12.92012,20.36387 9.64538,34.21091 -1.72079,7.27622 -5.80637,9.76893 -9.23678,5.63555 z m -31.22028,-4.34739 c -2.92982,-3.53024 -2.85579,-24.52387 0.11826,-33.53534 1.48587,-4.50223 3.28688,-6.67361 5.53527,-6.67361 2.59211,0 3.79124,2.20824 5.39552,9.93606 3.75846,18.10444 -3.84914,38.94824 -11.04905,30.27289 z m 54.88762,-0.88955 c -3.93413,-4.34718 -5.64354,-26.58069 -2.64245,-34.3694 2.33411,-6.05772 6.92314,-6.42913 9.08784,-0.73553 4.72017,12.415 4.28009,35.89033 -0.7087,37.80472 -1.34447,0.51591 -3.92598,-0.69898 -5.73669,-2.69979 z M 339.9296,550.29716 c 0,-11.39855 12.5649,-33.44924 19.06001,-33.44924 5.73463,0 1.53181,19.8843 -6.74577,31.91534 -6.73809,9.79347 -12.31424,10.48806 -12.31424,1.5339 z m 111.97701,0.005 c -6.08036,-6.92516 -9.18347,-14.91908 -9.83444,-25.33451 -1.01075,-16.17214 12.25228,-4.31147 19.46635,17.40805 4.89552,14.73901 -0.0657,18.82177 -9.63191,7.92646 z m -140.21626,-9.38939 c -0.61945,-1.61426 0.41847,-5.82052 2.30649,-9.34722 4.27336,-7.98266 19.7813,-23.71803 23.37496,-23.71803 10.10024,0 -3.67466,26.1843 -17.60281,33.46071 -6.14176,3.20861 -6.70615,3.18096 -8.07864,-0.39571 z m 171.33925,0.83419 c -7.08102,-3.91637 -12.1413,-9.75823 -17.34244,-20.02097 -7.95621,-15.69901 -3.84935,-18.61848 9.57201,-6.80454 9.08931,8.00073 17.04475,21.46957 15.32626,25.94788 -1.32741,3.45919 -2.61733,3.60902 -7.55583,0.87763 z M 286.83842,511.46218 c -4.52408,-7.32012 31.29812,-29.2535 36.85065,-22.56311 1.45715,1.75577 0.73874,3.78205 -2.85527,8.05329 -9.28432,11.03378 -30.53739,20.10497 -33.99538,14.50982 z m 213.29118,-1.07374 c -7.02379,-3.03091 -21.6,-16.46604 -21.6,-19.90906 0,-4.82366 4.4531,-4.35732 16.83733,1.76331 14.36488,7.09951 21.99188,13.92686 20.34689,18.21365 -1.34044,3.49313 -7.39303,3.46676 -15.58422,-0.0679 z m -226.17435,-32.3064 c -1.67996,-4.37791 4.60608,-9.16137 16.63415,-12.65802 11.52548,-3.35055 23.2402,-2.87325 23.2402,0.94689 0,1.44265 -3.91021,5.04051 -8.68937,7.99523 -10.97306,6.78412 -29.1753,8.95303 -31.18498,3.7159 z m 233.29015,1.06466 c -7.45942,-2.26472 -20.01094,-10.91876 -19.21104,-13.24566 1.13521,-3.30224 18.96381,-2.56693 28.77809,1.18688 10.05704,3.8467 14.16276,7.42551 12.74809,11.11209 -1.11177,2.89724 -14.07859,3.44734 -22.31514,0.94669 z M 276.9296,449.69632 c -7.74789,-2.64216 -9.69067,-9.16263 -3.24444,-10.88919 13.38442,-3.58491 40.61804,0.95074 38.8192,6.46517 -0.88361,2.70873 -14.11277,6.4683 -22.97476,6.52916 -3.465,0.0238 -9.135,-0.92353 -12.6,-2.10514 z m 221.85,0.2529 c -5.61367,-1.25713 -7.65,-2.59637 -7.65,-5.03114 0,-4.65064 8.72837,-7.27017 24.22457,-7.27017 14.806,0 21.41155,2.99578 17.36267,7.87441 -4.87593,5.87511 -19.15371,7.73757 -33.93724,4.4269 z M 285.03299,421.31529 c -9.46179,-4.7189 -12.46052,-7.89804 -11.01153,-11.67403 0.98923,-2.57789 2.72184,-2.90369 10.52653,-1.97933 11.20157,1.32667 29.05053,9.83527 29.86359,14.23598 0.50533,2.73512 -0.91714,3.14055 -10.79999,3.07827 -7.64531,-0.0482 -13.74461,-1.25003 -18.5786,-3.66089 z m 203.34789,1.85378 c -1.81136,-2.93083 2.06021,-6.38165 11.91693,-10.62189 12.69479,-5.46116 26.38997,-6.94508 27.89518,-3.02258 2.72138,7.09184 -12.56261,15.42264 -28.40715,15.48378 -5.63407,0.0218 -10.7663,-0.80595 -11.40496,-1.83931 z M 310.2296,401.36578 c -8.75584,-4.52754 -16.56727,-11.58327 -19.91329,-17.98681 -2.12627,-4.06921 -2.12282,-5.07526 0.0235,-6.85656 3.55515,-2.95052 14.54273,2.96267 25.07434,13.4943 13.18194,13.18192 10.34973,19.38166 -5.18458,11.34907 z m 169.50001,2.68213 c -2.24195,-2.24194 -1.20953,-4.27011 6.34646,-12.46738 12.95235,-14.05165 28.45353,-20.83367 28.45353,-12.44889 0,4.38498 -13.89713,18.3517 -22.31499,22.42672 -8.10524,3.92368 -10.56116,4.41339 -12.485,2.48955 z m -153.74003,-24.45 C 314.72606,368.09312 309.321,352.51967 315.73706,350.0576 c 4.18527,-1.60604 12.77199,7.58802 19.10931,20.46095 8.65719,17.58522 4.07226,22.28537 -8.85679,9.07936 z m 138.14002,3.09017 c 0,-10.32311 16.63157,-34.84118 22.18781,-32.70904 6.96345,2.67212 2.06923,16.94233 -10.15832,29.61887 -8.42506,8.73443 -12.02949,9.66035 -12.02949,3.09017 z M 349.30157,366.99791 c -8.65053,-12.72385 -12.42475,-29.85083 -7.27896,-33.03109 5.59013,-3.4549 22.03256,29.7033 18.84643,38.0062 -1.82488,4.75553 -6.24416,2.85482 -11.56747,-4.97511 z m 93.72064,-2.00284 c 1.52856,-14.8103 12.36713,-34.02402 17.42855,-30.8959 2.78513,1.72131 2.2767,14.51216 -0.87685,22.05966 -3.80948,9.11736 -11.25437,18.48908 -14.68773,18.48908 -2.38192,0 -2.69363,-1.61424 -1.86397,-9.65284 z m -65.8204,-2.53588 c -5.50465,-6.08257 -10.19272,-19.2108 -10.23268,-28.65505 -0.0409,-9.65825 1.34091,-12.09498 5.87247,-10.35605 4.43512,1.70191 12.05539,22.79331 12.07796,33.42942 0.0144,6.73854 -4.02624,9.66077 -7.71775,5.58168 z m 41.98442,-0.30548 c -3.40815,-6.36818 3.45364,-32.60281 9.93417,-37.98115 2.59741,-2.15568 3.3492,-2.01605 5.61713,1.04329 3.5309,4.76304 1.74011,17.00002 -4.25612,29.08324 -5.19037,10.45926 -8.62353,12.84667 -11.29518,7.85462 z m -20.71127,-1.83242 c -2.34486,-3.79404 -3.05222,-24.75257 -1.08081,-32.02339 2.45934,-9.07039 8.09291,-10.62646 10.98,-3.03282 4.21208,11.07861 0.33228,36.78283 -5.55201,36.78283 -1.80405,0 -3.76027,-0.77697 -4.34718,-1.72662 z"
       id="path4185" />
    <path
       style="display:inline;fill:#96a837"
       d="m 385.90754,711.70968 c -5.31801,-0.41091 -7.99621,-1.26159 -6.63004,-2.10593 1.3284,-0.821 -3.01544,-1.90984 -10.33197,-2.58982 -70.26909,-6.53084 -142.29198,-49.61568 -186.22105,-111.39941 -19.73777,-27.76003 -37.79863,-71.39457 -42.85683,-103.54092 -1.26107,-8.01441 -2.81522,-14.24882 -3.45368,-13.85422 -1.97702,1.22186 -3.59602,-32.19232 -2.34707,-48.44069 0.65191,-8.48113 1.70788,-15.09728 2.3466,-14.70253 0.63872,0.39474 2.17733,-5.73942 3.41915,-13.63151 4.65111,-29.5592 18.55843,-66.36759 34.94804,-92.49675 22.67917,-36.15631 55.68441,-67.93077 94.04891,-90.54181 25.40144,-14.97094 67.18256,-29.38427 93.27089,-32.17587 5.75899,-0.61624 9.55831,-1.68445 8.44292,-2.37379 -1.11537,-0.68935 6.02573,-1.78115 15.86916,-2.42622 20.52682,-1.34521 52.16258,0.39195 48.57476,2.6673 -1.53923,0.97617 -0.36772,1.50482 3.37459,1.52282 16.51054,0.0794 57.18933,12.15221 82.67407,24.53636 75.76629,36.81813 132.45252,111.60502 144.99056,191.28796 1.24182,7.89209 2.78354,14.02435 3.42603,13.62725 2.04187,-1.26193 3.65333,30.95383 2.38729,47.725 -0.6705,8.88196 -1.74478,15.82411 -2.38729,15.42703 -0.64249,-0.3971 -2.19503,5.90335 -3.45006,14.001 -4.90457,31.64513 -23.1577,75.66849 -42.86779,103.38959 -33.34628,46.89964 -81.17455,82.42378 -134.70513,100.05138 -17.44426,5.74437 -46.07208,11.91524 -55.45623,11.95383 -3.77093,0.0162 -6.42667,0.72324 -5.90164,1.57275 0.95443,1.54431 -19.24865,4.10643 -27.74213,3.51821 -2.475,-0.17136 -8.51493,-0.62186 -13.42206,-1.00101 z m 59.61404,-13.95103 c 33.09176,-5.3671 68.89882,-19.62738 98.27397,-39.13796 21.47514,-14.26349 54.80691,-47.42259 68.32671,-67.97276 20.22192,-30.7374 34.07475,-64.76044 40.30889,-99.00001 4.28859,-23.55412 4.23616,-65.42313 -0.11052,-88.20001 C 628.2054,277.08007 517.96091,188.83578 392.25839,195.28318 c -64.00711,3.28298 -118.90948,27.90346 -164.91838,73.95619 -36.77737,36.8124 -58.07943,76.12207 -69.62357,128.47957 -5.60714,25.43073 -5.57983,74.60177 0.0559,100.56812 22.59188,104.09178 100.89031,180.47048 204.43707,199.42466 17.95273,3.28624 63.18265,3.31171 83.31223,0.047 z M 401.50832,570.40426 c -5.57202,-6.71387 -5.8559,-34.39915 -0.4086,-39.84646 5.59993,-5.59992 12.92012,20.36387 9.64538,34.21091 -1.72079,7.27622 -5.80637,9.76893 -9.23678,5.63555 z m -31.22028,-4.34739 c -2.92982,-3.53024 -2.85579,-24.52387 0.11826,-33.53534 1.48587,-4.50223 3.28688,-6.67361 5.53527,-6.67361 2.59211,0 3.79124,2.20824 5.39552,9.93606 3.75846,18.10444 -3.84914,38.94824 -11.04905,30.27289 z m 54.88762,-0.88955 c -3.93413,-4.34718 -5.64354,-26.58069 -2.64245,-34.3694 2.33411,-6.05772 6.92314,-6.42913 9.08784,-0.73553 4.72017,12.415 4.28009,35.89033 -0.7087,37.80472 -1.34447,0.51591 -3.92598,-0.69898 -5.73669,-2.69979 z M 339.9296,550.29716 c 0,-11.39855 12.5649,-33.44924 19.06001,-33.44924 5.73463,0 1.53181,19.8843 -6.74577,31.91534 -6.73809,9.79347 -12.31424,10.48806 -12.31424,1.5339 z m 111.97701,0.005 c -6.08036,-6.92516 -9.18347,-14.91908 -9.83444,-25.33451 -1.01075,-16.17214 12.25228,-4.31147 19.46635,17.40805 4.89552,14.73901 -0.0657,18.82177 -9.63191,7.92646 z m -140.21626,-9.38939 c -0.61945,-1.61426 0.41847,-5.82052 2.30649,-9.34722 4.27336,-7.98266 19.7813,-23.71803 23.37496,-23.71803 10.10024,0 -3.67466,26.1843 -17.60281,33.46071 -6.14176,3.20861 -6.70615,3.18096 -8.07864,-0.39571 z m 171.33925,0.83419 c -7.08102,-3.91637 -12.1413,-9.75823 -17.34244,-20.02097 -7.95621,-15.69901 -3.84935,-18.61848 9.57201,-6.80454 9.08931,8.00073 17.04475,21.46957 15.32626,25.94788 -1.32741,3.45919 -2.61733,3.60902 -7.55583,0.87763 z M 286.83842,511.46218 c -4.52408,-7.32012 31.29812,-29.2535 36.85065,-22.56311 1.45715,1.75577 0.73874,3.78205 -2.85527,8.05329 -9.28432,11.03378 -30.53739,20.10497 -33.99538,14.50982 z m 213.29118,-1.07374 c -7.02379,-3.03091 -21.6,-16.46604 -21.6,-19.90906 0,-4.82366 4.4531,-4.35732 16.83733,1.76331 14.36488,7.09951 21.99188,13.92686 20.34689,18.21365 -1.34044,3.49313 -7.39303,3.46676 -15.58422,-0.0679 z m -226.17435,-32.3064 c -1.67996,-4.37791 4.60608,-9.16137 16.63415,-12.65802 11.52548,-3.35055 23.2402,-2.87325 23.2402,0.94689 0,1.44265 -3.91021,5.04051 -8.68937,7.99523 -10.97306,6.78412 -29.1753,8.95303 -31.18498,3.7159 z m 233.29015,1.06466 c -7.45942,-2.26472 -20.01094,-10.91876 -19.21104,-13.24566 1.13521,-3.30224 18.96381,-2.56693 28.77809,1.18688 10.05704,3.8467 14.16276,7.42551 12.74809,11.11209 -1.11177,2.89724 -14.07859,3.44734 -22.31514,0.94669 z M 276.9296,449.69632 c -7.74789,-2.64216 -9.69067,-9.16263 -3.24444,-10.88919 13.38442,-3.58491 40.61804,0.95074 38.8192,6.46517 -0.88361,2.70873 -14.11277,6.4683 -22.97476,6.52916 -3.465,0.0238 -9.135,-0.92353 -12.6,-2.10514 z m 221.85,0.2529 c -5.61367,-1.25713 -7.65,-2.59637 -7.65,-5.03114 0,-4.65064 8.72837,-7.27017 24.22457,-7.27017 14.806,0 21.41155,2.99578 17.36267,7.87441 -4.87593,5.87511 -19.15371,7.73757 -33.93724,4.4269 z M 285.03299,421.31529 c -9.46179,-4.7189 -12.46052,-7.89804 -11.01153,-11.67403 0.98923,-2.57789 2.72184,-2.90369 10.52653,-1.97933 11.20157,1.32667 29.05053,9.83527 29.86359,14.23598 0.50533,2.73512 -0.91714,3.14055 -10.79999,3.07827 -7.64531,-0.0482 -13.74461,-1.25003 -18.5786,-3.66089 z m 203.34789,1.85378 c -1.81136,-2.93083 2.06021,-6.38165 11.91693,-10.62189 12.69479,-5.46116 26.38997,-6.94508 27.89518,-3.02258 2.72138,7.09184 -12.56261,15.42264 -28.40715,15.48378 -5.63407,0.0218 -10.7663,-0.80595 -11.40496,-1.83931 z M 310.2296,401.36578 c -8.75584,-4.52754 -16.56727,-11.58327 -19.91329,-17.98681 -2.12627,-4.06921 -2.12282,-5.07526 0.0235,-6.85656 3.55515,-2.95052 14.54273,2.96267 25.07434,13.4943 13.18194,13.18192 10.34973,19.38166 -5.18458,11.34907 z m 169.50001,2.68213 c -2.24195,-2.24194 -1.20953,-4.27011 6.34646,-12.46738 12.95235,-14.05165 28.45353,-20.83367 28.45353,-12.44889 0,4.38498 -13.89713,18.3517 -22.31499,22.42672 -8.10524,3.92368 -10.56116,4.41339 -12.485,2.48955 z m -153.74003,-24.45 C 314.72606,368.09312 309.321,352.51967 315.73706,350.0576 c 4.18527,-1.60604 12.77199,7.58802 19.10931,20.46095 8.65719,17.58522 4.07226,22.28537 -8.85679,9.07936 z m 138.14002,3.09017 c 0,-10.32311 16.63157,-34.84118 22.18781,-32.70904 6.96345,2.67212 2.06923,16.94233 -10.15832,29.61887 -8.42506,8.73443 -12.02949,9.66035 -12.02949,3.09017 z M 349.30157,366.99791 c -8.65053,-12.72385 -12.42475,-29.85083 -7.27896,-33.03109 5.59013,-3.4549 22.03256,29.7033 18.84643,38.0062 -1.82488,4.75553 -6.24416,2.85482 -11.56747,-4.97511 z m 93.72064,-2.00284 c 1.52856,-14.8103 12.36713,-34.02402 17.42855,-30.8959 2.78513,1.72131 2.2767,14.51216 -0.87685,22.05966 -3.80948,9.11736 -11.25437,18.48908 -14.68773,18.48908 -2.38192,0 -2.69363,-1.61424 -1.86397,-9.65284 z m -65.8204,-2.53588 c -5.50465,-6.08257 -10.19272,-19.2108 -10.23268,-28.65505 -0.0409,-9.65825 1.34091,-12.09498 5.87247,-10.35605 4.43512,1.70191 12.05539,22.79331 12.07796,33.42942 0.0144,6.73854 -4.02624,9.66077 -7.71775,5.58168 z m 41.98442,-0.30548 c -3.40815,-6.36818 3.45364,-32.60281 9.93417,-37.98115 2.59741,-2.15568 3.3492,-2.01605 5.61713,1.04329 3.5309,4.76304 1.74011,17.00002 -4.25612,29.08324 -5.19037,10.45926 -8.62353,12.84667 -11.29518,7.85462 z m -20.71127,-1.83242 c -2.34486,-3.79404 -3.05222,-24.75257 -1.08081,-32.02339 2.45934,-9.07039 8.09291,-10.62646 10.98,-3.03282 4.21208,11.07861 0.33228,36.78283 -5.55201,36.78283 -1.80405,0 -3.76027,-0.77697 -4.34718,-1.72662 z"
       id="path4183" />
    <path
       style="display:inline;fill:#a57a4f"
       d="m 385.90754,711.70968 c -5.31801,-0.41091 -7.99621,-1.26159 -6.63004,-2.10593 1.3284,-0.821 -3.01544,-1.90984 -10.33197,-2.58982 -70.26909,-6.53084 -142.29198,-49.61568 -186.22105,-111.39941 -19.73777,-27.76003 -37.79863,-71.39457 -42.85683,-103.54092 -1.26107,-8.01441 -2.81522,-14.24882 -3.45368,-13.85422 -1.97702,1.22186 -3.59602,-32.19232 -2.34707,-48.44069 0.65191,-8.48113 1.70788,-15.09728 2.3466,-14.70253 0.63872,0.39474 2.17733,-5.73942 3.41915,-13.63151 4.65111,-29.5592 18.55843,-66.36759 34.94804,-92.49675 22.67917,-36.15631 55.68441,-67.93077 94.04891,-90.54181 25.40144,-14.97094 67.18256,-29.38427 93.27089,-32.17587 5.75899,-0.61624 9.55831,-1.68445 8.44292,-2.37379 -1.11537,-0.68935 6.02573,-1.78115 15.86916,-2.42622 20.52682,-1.34521 52.16258,0.39195 48.57476,2.6673 -1.53923,0.97617 -0.36772,1.50482 3.37459,1.52282 16.51054,0.0794 57.18933,12.15221 82.67407,24.53636 75.76629,36.81813 132.45252,111.60502 144.99056,191.28796 1.24182,7.89209 2.78354,14.02435 3.42603,13.62725 2.04187,-1.26193 3.65333,30.95383 2.38729,47.725 -0.6705,8.88196 -1.74478,15.82411 -2.38729,15.42703 -0.64249,-0.3971 -2.19503,5.90335 -3.45006,14.001 -4.90457,31.64513 -23.1577,75.66849 -42.86779,103.38959 -33.34628,46.89964 -81.17455,82.42378 -134.70513,100.05138 -17.44426,5.74437 -46.07208,11.91524 -55.45623,11.95383 -3.77093,0.0162 -6.42667,0.72324 -5.90164,1.57275 0.95443,1.54431 -19.24865,4.10643 -27.74213,3.51821 -2.475,-0.17136 -8.51493,-0.62186 -13.42206,-1.00101 z m 59.61404,-13.95103 c 33.09176,-5.3671 68.89882,-19.62738 98.27397,-39.13796 21.47514,-14.26349 54.80691,-47.42259 68.32671,-67.97276 20.22192,-30.7374 34.07475,-64.76044 40.30889,-99.00001 4.28859,-23.55412 4.23616,-65.42313 -0.11052,-88.20001 C 628.2054,277.08007 517.96091,188.83578 392.25839,195.28318 c -64.00711,3.28298 -118.90948,27.90346 -164.91838,73.95619 -36.77737,36.8124 -58.07943,76.12207 -69.62357,128.47957 -5.60714,25.43073 -5.57983,74.60177 0.0559,100.56812 22.59188,104.09178 100.89031,180.47048 204.43707,199.42466 17.95273,3.28624 63.18265,3.31171 83.31223,0.047 z M 401.52312,565.89793 c -1.72895,-4.2104 -1.65944,-28.58408 0.0866,-30.33001 3.30008,-3.30008 5.85661,3.93581 6.45471,18.26918 0.54805,13.13409 0.23314,15.21083 -2.3065,15.21083 -1.61766,0 -3.52329,-1.4175 -4.2347,-3.15 z m -30.3804,-3.24854 c -1.69216,-4.40971 0.43657,-29.57115 2.69269,-31.82728 3.16602,-3.16602 4.50583,-0.38498 5.33463,11.07294 1.10795,15.31746 -4.52499,29.88126 -8.02732,20.75434 z m 55.0206,-0.10188 c -2.73344,-3.29358 -3.67979,-29.85357 -1.15371,-32.37964 3.21631,-3.21631 5.83969,3.90136 6.45826,17.52235 0.69494,15.30308 -0.99839,20.04588 -5.30455,14.85729 z m -83.83021,-14.96716 c 2.33316,-11.66582 13.54872,-29.78025 16.56867,-26.7603 1.87195,1.87195 -3.03195,18.65699 -7.38514,25.27782 -5.5143,8.38678 -10.73288,9.22921 -9.18353,1.48248 z m 108.77187,-2.17991 c -4.79554,-7.39582 -8.36643,-22.16153 -5.94505,-24.58289 1.67502,-1.67502 5.78901,3.88417 11.04892,14.93032 7.79906,16.37851 3.9623,23.63467 -5.10387,9.65257 z m -136.33075,-8.30252 c 0.0988,-6.98101 19.51646,-28.28893 22.7932,-25.01217 2.15521,2.15521 -5.48862,15.73123 -12.34494,21.9255 -7.6849,6.94285 -10.51474,7.77884 -10.44826,3.08667 z m 163.80498,-1.58446 c -4.64695,-3.91016 -14.44961,-19.58514 -14.44961,-23.10571 0,-4.89967 13.40574,6.34734 20.04608,16.81811 7.28107,11.48103 4.40959,14.70713 -5.59647,6.2876 z M 290.29073,509.42323 c -1.63251,-2.64147 5.82503,-9.06167 17.62903,-15.17688 9.62872,-4.98827 12.20984,-5.41851 12.20984,-2.03519 0,7.19996 -26.55851,22.5198 -29.83887,17.21207 z m 211.91566,-0.7317 c -8.2381,-3.57725 -20.07679,-13.18587 -20.07679,-16.29486 0,-3.76346 2.83581,-3.16718 14.49755,3.04848 11.66544,6.21759 17.06117,11.19531 15.27255,14.08935 -1.49766,2.42325 -2.34022,2.34999 -9.69331,-0.84297 z M 277.19513,476.17049 c 1.15242,-6.21653 33.03447,-14.76522 33.03447,-8.85769 0,3.21547 -14.91993,10.05971 -24.36892,11.17881 -8.46149,1.00213 -9.24282,0.79286 -8.66555,-2.32112 z m 230.13447,0.0554 c -4.455,-1.41421 -10.1197,-4.14254 -12.58824,-6.06294 -3.89902,-3.03326 -4.09066,-3.64423 -1.45987,-4.65376 4.32088,-1.65809 21.18376,2.18417 28.13277,6.41013 10.89407,6.62506 1.8909,9.37791 -14.08466,4.30657 z M 282.97356,448.52598 c -3.11083,-0.73922 -7.16083,-1.92706 -9,-2.63961 -3.2305,-1.25161 -3.22541,-1.38281 0.15008,-3.86701 5.89648,-4.33953 31.30192,-2.58356 32.9216,2.27545 1.17469,3.52408 -15.04773,6.37555 -24.07168,4.23117 z m 220.95746,-0.31968 c -8.94915,-1.64912 -10.59629,-2.68351 -8.15718,-5.12262 4.30391,-4.30391 34.95576,-4.31928 34.95576,-0.018 0,4.49383 -14.8496,7.34208 -26.79858,5.14015 z M 290.24675,420.86097 c -16.31236,-6.17409 -17.61531,-13.79832 -1.75047,-10.24294 9.94956,2.22975 22.63332,8.31933 22.63332,10.86646 0,2.39978 -13.99947,1.98178 -20.88285,-0.62352 z m 200.88285,0.63317 c 0,-4.29716 28.77662,-13.84553 33.59709,-11.14785 6.28067,3.51484 -12.26813,12.68134 -25.94709,12.82262 -4.2075,0.0434 -7.65,-0.71019 -7.65,-1.67477 z M 309.15021,398.06418 c -6.56158,-3.46806 -17.82061,-14.89028 -17.82061,-18.07891 0,-3.16653 4.67811,-1.8067 13.19722,3.83611 8.21198,5.4394 15.60278,13.1459 15.60278,16.26928 0,2.43061 -3.91305,1.70836 -10.97939,-2.02648 z m 172.97939,2.22518 c 0,-2.5022 16.99602,-18.06118 22.43771,-20.54058 10.55601,-4.80965 6.3009,6.50569 -5.64597,15.01397 -7.44624,5.30301 -16.79174,8.37887 -16.79174,5.52661 z M 326.87208,376.89791 c -10.96054,-11.22982 -15.23817,-30.46748 -4.64249,-20.87852 7.32913,6.63278 17.10218,27.62852 12.86046,27.62852 -0.89642,0 -4.5945,-3.0375 -8.21797,-6.75 z m 140.06426,2.7 c 3.4749,-11.26469 13.8291,-26.55 17.98487,-26.55 1.43461,0 2.59061,1.0125 2.56887,2.25 -0.0706,4.01135 -6.4766,16.49927 -11.54216,22.5 -5.8637,6.9462 -10.91,7.95416 -9.01158,1.8 z M 350.2033,364.08974 c -5.25056,-7.93413 -9.22307,-20.89271 -7.65635,-24.97552 0.92388,-2.40762 1.50365,-2.35277 4.58246,0.43351 6.44032,5.8284 13.97016,31.50018 9.2394,31.50018 -0.85846,0 -3.63293,-3.13117 -6.16551,-6.95817 z m 94.69429,0.55546 c 1.39342,-8.5867 10.27435,-26.4968 13.64282,-27.5134 4.30302,-1.29866 1.26003,15.02453 -4.54815,24.39715 -6.89085,11.1197 -10.59968,12.39052 -9.09467,3.11625 z m -70.96215,-11.97791 c -4.04867,-7.93603 -5.59721,-23.2737 -2.50584,-24.81939 2.87336,-1.43668 8.69629,12.50925 9.55709,22.88921 0.97317,11.73513 -1.67881,12.46107 -7.05125,1.93018 z m 46.99416,2.65732 c 0,-2.87282 1.29764,-9.62282 2.88366,-15 4.86912,-16.50821 9.71634,-19.33088 9.71634,-5.65811 0,5.38478 -1.51961,11.59835 -4.05,16.56006 -4.93124,9.66944 -8.55,11.40392 -8.55,4.09805 z m -20.76643,1.2158 c -0.6484,-1.04912 -1.21297,-7.34896 -1.2546,-13.99964 -0.1224,-19.54236 3.56913,-26.07029 7.68688,-13.59338 2.89098,8.75981 0.25297,29.50052 -3.75219,29.50052 -0.82566,0 -2.0317,-0.85838 -2.68009,-1.9075 z"
       id="path4181" />
    <path
       style="display:inline;fill:#464b1d"
       d="m 401.52312,565.89793 c -1.72895,-4.2104 -1.65944,-28.58408 0.0866,-30.33001 3.30008,-3.30008 5.85661,3.93581 6.45471,18.26918 0.54805,13.13409 0.23314,15.21083 -2.3065,15.21083 -1.61766,0 -3.52329,-1.4175 -4.2347,-3.15 z m -30.3804,-3.24854 c -1.69216,-4.40971 0.43657,-29.57115 2.69269,-31.82728 3.16602,-3.16602 4.50583,-0.38498 5.33463,11.07294 1.10795,15.31746 -4.52499,29.88126 -8.02732,20.75434 z m 55.0206,-0.10188 c -2.73344,-3.29358 -3.67979,-29.85357 -1.15371,-32.37964 3.21631,-3.21631 5.83969,3.90136 6.45826,17.52235 0.69494,15.30308 -0.99839,20.04588 -5.30455,14.85729 z m -83.83021,-14.96716 c 2.33316,-11.66582 13.54872,-29.78025 16.56867,-26.7603 1.87195,1.87195 -3.03195,18.65699 -7.38514,25.27782 -5.5143,8.38678 -10.73288,9.22921 -9.18353,1.48248 z m 108.77187,-2.17991 c -4.79554,-7.39582 -8.36643,-22.16153 -5.94505,-24.58289 1.67502,-1.67502 5.78901,3.88417 11.04892,14.93032 7.79906,16.37851 3.9623,23.63467 -5.10387,9.65257 z m -136.33075,-8.30252 c 0.0988,-6.98101 19.51646,-28.28893 22.7932,-25.01217 2.15521,2.15521 -5.48862,15.73123 -12.34494,21.9255 -7.6849,6.94285 -10.51474,7.77884 -10.44826,3.08667 z m 163.80498,-1.58446 c -4.64695,-3.91016 -14.44961,-19.58514 -14.44961,-23.10571 0,-4.89967 13.40574,6.34734 20.04608,16.81811 7.28107,11.48103 4.40959,14.70713 -5.59647,6.2876 z M 290.29073,509.42323 c -1.63251,-2.64147 5.82503,-9.06167 17.62903,-15.17688 9.62872,-4.98827 12.20984,-5.41851 12.20984,-2.03519 0,7.19996 -26.55851,22.5198 -29.83887,17.21207 z m 211.91566,-0.7317 c -8.2381,-3.57725 -20.07679,-13.18587 -20.07679,-16.29486 0,-3.76346 2.83581,-3.16718 14.49755,3.04848 11.66544,6.21759 17.06117,11.19531 15.27255,14.08935 -1.49766,2.42325 -2.34022,2.34999 -9.69331,-0.84297 z M 277.19513,476.17049 c 1.15242,-6.21653 33.03447,-14.76522 33.03447,-8.85769 0,3.21547 -14.91993,10.05971 -24.36892,11.17881 -8.46149,1.00213 -9.24282,0.79286 -8.66555,-2.32112 z m 230.13447,0.0554 c -4.455,-1.41421 -10.1197,-4.14254 -12.58824,-6.06294 -3.89902,-3.03326 -4.09066,-3.64423 -1.45987,-4.65376 4.32088,-1.65809 21.18376,2.18417 28.13277,6.41013 10.89407,6.62506 1.8909,9.37791 -14.08466,4.30657 z M 282.97356,448.52598 c -3.11083,-0.73922 -7.16083,-1.92706 -9,-2.63961 -3.2305,-1.25161 -3.22541,-1.38281 0.15008,-3.86701 5.89648,-4.33953 31.30192,-2.58356 32.9216,2.27545 1.17469,3.52408 -15.04773,6.37555 -24.07168,4.23117 z m 220.95746,-0.31968 c -8.94915,-1.64912 -10.59629,-2.68351 -8.15718,-5.12262 4.30391,-4.30391 34.95576,-4.31928 34.95576,-0.018 0,4.49383 -14.8496,7.34208 -26.79858,5.14015 z M 290.24675,420.86097 c -16.31236,-6.17409 -17.61531,-13.79832 -1.75047,-10.24294 9.94956,2.22975 22.63332,8.31933 22.63332,10.86646 0,2.39978 -13.99947,1.98178 -20.88285,-0.62352 z m 200.88285,0.63317 c 0,-4.29716 28.77662,-13.84553 33.59709,-11.14785 6.28067,3.51484 -12.26813,12.68134 -25.94709,12.82262 -4.2075,0.0434 -7.65,-0.71019 -7.65,-1.67477 z M 309.15021,398.06418 c -6.56158,-3.46806 -17.82061,-14.89028 -17.82061,-18.07891 0,-3.16653 4.67811,-1.8067 13.19722,3.83611 8.21198,5.4394 15.60278,13.1459 15.60278,16.26928 0,2.43061 -3.91305,1.70836 -10.97939,-2.02648 z m 172.97939,2.22518 c 0,-2.5022 16.99602,-18.06118 22.43771,-20.54058 10.55601,-4.80965 6.3009,6.50569 -5.64597,15.01397 -7.44624,5.30301 -16.79174,8.37887 -16.79174,5.52661 z M 326.87208,376.89791 c -10.96054,-11.22982 -15.23817,-30.46748 -4.64249,-20.87852 7.32913,6.63278 17.10218,27.62852 12.86046,27.62852 -0.89642,0 -4.5945,-3.0375 -8.21797,-6.75 z m 140.06426,2.7 c 3.4749,-11.26469 13.8291,-26.55 17.98487,-26.55 1.43461,0 2.59061,1.0125 2.56887,2.25 -0.0706,4.01135 -6.4766,16.49927 -11.54216,22.5 -5.8637,6.9462 -10.91,7.95416 -9.01158,1.8 z M 350.2033,364.08974 c -5.25056,-7.93413 -9.22307,-20.89271 -7.65635,-24.97552 0.92388,-2.40762 1.50365,-2.35277 4.58246,0.43351 6.44032,5.8284 13.97016,31.50018 9.2394,31.50018 -0.85846,0 -3.63293,-3.13117 -6.16551,-6.95817 z m 94.69429,0.55546 c 1.39342,-8.5867 10.27435,-26.4968 13.64282,-27.5134 4.30302,-1.29866 1.26003,15.02453 -4.54815,24.39715 -6.89085,11.1197 -10.59968,12.39052 -9.09467,3.11625 z m -70.96215,-11.97791 c -4.04867,-7.93603 -5.59721,-23.2737 -2.50584,-24.81939 2.87336,-1.43668 8.69629,12.50925 9.55709,22.88921 0.97317,11.73513 -1.67881,12.46107 -7.05125,1.93018 z m 46.99416,2.65732 c 0,-2.87282 1.29764,-9.62282 2.88366,-15 4.86912,-16.50821 9.71634,-19.33088 9.71634,-5.65811 0,5.38478 -1.51961,11.59835 -4.05,16.56006 -4.93124,9.66944 -8.55,11.40392 -8.55,4.09805 z m -20.76643,1.2158 c -0.6484,-1.04912 -1.21297,-7.34896 -1.2546,-13.99964 -0.1224,-19.54236 3.56913,-26.07029 7.68688,-13.59338 2.89098,8.75981 0.25297,29.50052 -3.75219,29.50052 -0.82566,0 -2.0317,-0.85838 -2.68009,-1.9075 z"
       id="path4179" />
  </g>
</svg>
